<?xml version="1.0" encoding="UTF-8"?>
<svg width="211px" height="211px" viewBox="0 0 211 211" version="1.1" xmlns="http://www.w3.org/2000/svg" xmlns:xlink="http://www.w3.org/1999/xlink">
    <!-- Generator: Sketch 59.1 (86144) - https://sketch.com -->
    <title>Group 21</title>
    <desc>Created with Sketch.</desc>
    <defs>
        <circle id="path-1" cx="88.5" cy="88.5" r="88.5"></circle>
        <filter x="-14.4%" y="-14.4%" width="128.8%" height="128.8%" filterUnits="objectBoundingBox" id="filter-2">
            <feMorphology radius="0.5" operator="dilate" in="SourceAlpha" result="shadowSpreadOuter1"></feMorphology>
            <feOffset dx="0" dy="0" in="shadowSpreadOuter1" result="shadowOffsetOuter1"></feOffset>
            <feGaussianBlur stdDeviation="8" in="shadowOffsetOuter1" result="shadowBlurOuter1"></feGaussianBlur>
            <feColorMatrix values="0 0 0 0 0.247752866   0 0 0 0 0.295020914   0 0 0 0 0.315783514  0 0 0 0.636472902 0" type="matrix" in="shadowBlurOuter1"></feColorMatrix>
        </filter>
    </defs>
    <g id="Page-1" stroke="none" stroke-width="1" fill="none" fill-rule="evenodd">
        <g id="Group-21" transform="translate(17.000000, 17.000000)">
            <g id="Oval">
                <use fill="black" fill-opacity="1" filter="url(#filter-2)" xlink:href="#path-1"></use>
                <use fill="#046F9E" fill-rule="evenodd" xlink:href="#path-1"></use>
            </g>
            <g id="noun_building_1987214" transform="translate(40.000000, 44.000000)" fill="#FFFFFF" fill-rule="nonzero">
                <path d="M89.7,81.6 L89.7,12.6 L34.9,0.9 L34.9,81.6 L31,81.6 L31,21.4 L6.3,27.6 L6.3,81.6 L0.5,81.6 L0.5,87.1 L95.5,87.1 L95.5,81.6 L89.7,81.6 Z M14.5,36.6 L23.1,36.6 L23.1,45.2 L14.5,45.2 L14.5,36.6 Z M14.5,51.5 L23.1,51.5 L23.1,60.1 L14.5,60.1 L14.5,51.5 Z M14.5,66.3 L23.1,66.3 L23.1,75 L14.5,75 L14.5,66.3 Z M72.9,21.6 L81.5,21.6 L81.5,30.2 L72.9,30.2 L72.9,21.6 Z M72.9,36.5 L81.5,36.5 L81.5,45.1 L72.9,45.1 L72.9,36.5 Z M72.9,51.4 L81.5,51.4 L81.5,60 L72.9,60 L72.9,51.4 Z M72.9,66.3 L81.5,66.3 L81.5,74.9 L72.9,74.9 L72.9,66.3 Z M58,21.6 L66.6,21.6 L66.6,30.2 L58,30.2 L58,21.6 Z M58,36.5 L66.6,36.5 L66.6,45.1 L58,45.1 L58,36.5 Z M58,51.4 L66.6,51.4 L66.6,60 L58,60 L58,51.4 Z M43.1,21.6 L51.7,21.6 L51.7,30.2 L43.1,30.2 L43.1,21.6 Z M43.1,36.5 L51.7,36.5 L51.7,45.1 L43.1,45.1 L43.1,36.5 Z M43.1,51.4 L51.7,51.4 L51.7,60 L43.1,60 L43.1,51.4 Z M43.1,66.3 L51.7,66.3 L51.7,74.9 L43.1,74.9 L43.1,66.3 Z M58,66.3 L66.6,66.3 L66.6,81.6 L58,81.6 L58,66.3 Z" id="Shape"></path>
            </g>
        </g>
    </g>
</svg>